<svg xmlns="http://www.w3.org/2000/svg" width="196" height="48" viewBox="0 0 196 48" role="img" aria-labelledby="title desc">
  <title id="title">Sarge</title>
  <desc id="desc">Sarge logo with a geometric marketing tracking data mark and wordmark.</desc>
  <g fill="none">
    <rect width="48" height="48" rx="10" fill="#0c0d14"/>
    <path d="M12 34h24M12 24h24M12 14h24" stroke="#f4f1f2" stroke-opacity=".2" stroke-width="1"/>
    <path d="M14 35 22 24l7 5 8-16" stroke="#497ef7" stroke-width="3" stroke-linecap="round" stroke-linejoin="round"/>
    <rect x="10" y="31" width="8" height="8" rx="2" fill="#f4f1f2"/>
    <rect x="18" y="20" width="8" height="8" rx="2" fill="#497ef7"/>
    <rect x="25" y="25" width="8" height="8" rx="2" fill="#f4f1f2"/>
    <rect x="34" y="9" width="8" height="8" rx="2" fill="#497ef7"/>
    <path d="M38 31h-4v7h-7" stroke="#f4f1f2" stroke-opacity=".7" stroke-width="2" stroke-linecap="round"/>
    <circle cx="38" cy="31" r="2" fill="#497ef7"/>
  </g>
  <g fill="#f4f1f2">
    <path d="M69.4 34.6c-4.3 0-7.8-1-10.5-3.1l2.5-5.4c2.5 1.8 5.2 2.7 8.1 2.7 2.8 0 4.2-.8 4.2-2.3 0-.9-.5-1.5-1.4-1.9-.9-.4-2.4-.8-4.6-1.2-3-.6-5.2-1.5-6.6-2.8-1.4-1.2-2.1-3-2.1-5.2 0-2.7 1.1-4.8 3.3-6.3 2.2-1.6 5.1-2.4 8.8-2.4 3.6 0 6.8.8 9.4 2.5l-2.3 5.2c-2.2-1.4-4.6-2.1-7.1-2.1-2.7 0-4.1.8-4.1 2.3 0 .8.4 1.4 1.2 1.8.8.4 2.2.8 4.2 1.2 3.3.7 5.7 1.6 7.2 2.9 1.5 1.2 2.3 3 2.3 5.3 0 2.6-1.1 4.7-3.3 6.2-2.1 1.4-5.2 2.1-9.2 2.1Z"/>
    <path d="M94.2 34.5c-2.5 0-4.6-.9-6.2-2.8-1.6-1.9-2.4-4.5-2.4-7.8 0-3.4.8-6 2.4-7.9 1.6-1.9 3.7-2.8 6.2-2.8 2.9 0 5.1 1.1 6.4 3.3l.5-2.9h6.7V34h-6.7l-.5-2.9c-1.3 2.3-3.5 3.4-6.4 3.4Zm2.3-5.5c1.3 0 2.4-.5 3.2-1.4.8-1 1.2-2.2 1.2-3.7 0-1.6-.4-2.8-1.2-3.8-.8-.9-1.9-1.4-3.2-1.4s-2.4.5-3.2 1.4c-.8 1-1.2 2.2-1.2 3.8 0 1.5.4 2.7 1.2 3.7.8.9 1.9 1.4 3.2 1.4Z"/>
    <path d="M114.4 34V13.6h6.8l.5 3.4c1.1-2.4 3.2-3.7 6.2-3.7h1.5v6.3h-2.1c-2 0-3.5.5-4.6 1.5-1 .9-1.5 2.5-1.5 4.6V34h-6.8Z"/>
    <path d="M142.4 42.1c-3.4 0-6.3-.6-8.7-1.8l1.5-5.2c2.2 1 4.4 1.5 6.7 1.5 4 0 6-1.8 6-5.4v-.9c-1.3 2-3.4 3-6.1 3-2.6 0-4.8-.9-6.4-2.7-1.6-1.8-2.4-4.2-2.4-7.2 0-3.1.8-5.6 2.4-7.4 1.6-1.8 3.8-2.8 6.4-2.8 2.8 0 5 1.1 6.3 3.2l.5-2.8h6.5v17.5c0 3.7-1.1 6.4-3.2 8.2-2.2 1.9-5.5 2.8-10.1 2.8Zm1.9-14.2c1.2 0 2.2-.4 3-1.2.8-.8 1.2-1.9 1.2-3.3 0-1.4-.4-2.5-1.2-3.3-.8-.8-1.8-1.2-3-1.2-1.3 0-2.4.4-3.2 1.2-.8.8-1.2 1.9-1.2 3.3 0 1.4.4 2.5 1.2 3.3.8.8 1.9 1.2 3.2 1.2Z"/>
    <path d="M171 34.5c-3.7 0-6.6-1-8.8-2.9-2.1-2-3.2-4.6-3.2-7.8 0-3.3 1-5.9 3.1-7.8 2.1-1.9 4.8-2.8 8.2-2.8 3.2 0 5.7.9 7.6 2.7 1.9 1.8 2.8 4.3 2.8 7.5v1.7h-15c.3 2.9 2.2 4.3 5.7 4.3 2.2 0 4.4-.5 6.5-1.5l1.5 4.8c-2.2 1.2-5 1.8-8.4 1.8Zm-.7-16.6c-2.5 0-4 1.2-4.5 3.6h8.6c-.2-2.4-1.6-3.6-4.1-3.6Z"/>
  </g>
</svg>
